<svg width="760" height="460" viewBox="0 0 760 460" fill="none" xmlns="http://www.w3.org/2000/svg">
<defs>
  <linearGradient id="panel" x1="112" y1="48" x2="618" y2="390" gradientUnits="userSpaceOnUse">
    <stop stop-color="#FFFFFF"/>
    <stop offset="1" stop-color="#F1F9FF"/>
  </linearGradient>
  <linearGradient id="line2" x1="356" y1="262" x2="634" y2="154" gradientUnits="userSpaceOnUse">
    <stop stop-color="#2497D3"/>
    <stop offset="1" stop-color="#7F79E8"/>
  </linearGradient>
  <filter id="shadow2" x="40" y="20" width="680" height="420" filterUnits="userSpaceOnUse" color-interpolation-filters="sRGB">
    <feDropShadow dx="0" dy="24" stdDeviation="24" flood-color="#227EBC" flood-opacity="0.14"/>
  </filter>
</defs>
<g filter="url(#shadow2)">
  <rect x="72" y="44" width="616" height="372" rx="34" fill="url(#panel)"/>
</g>
<text x="116" y="96" fill="#7893A6" font-family="Pretendard, Arial" font-size="14" font-weight="900">CENTER INSIGHT BOARD</text>
<text x="116" y="126" fill="#12304B" font-family="Pretendard, Arial" font-size="28" font-weight="900">운영 · 콘텐츠 · 상담 흐름</text>
<rect x="116" y="154" width="186" height="214" rx="28" fill="#ffffff" stroke="#DCEEFF"/>
<text x="146" y="188" fill="#6B8496" font-family="Pretendard, Arial" font-size="14" font-weight="800">재등록 지표</text>
<circle cx="208" cy="264" r="58" fill="#EEF8FF"/>
<path d="M208 206C236 206 260 229 260 258C260 287 236 310 208 310C180 310 156 287 156 258C156 243 163 229 173 220" stroke="#2497D3" stroke-width="18" stroke-linecap="round"/>
<path d="M208 206C221 206 233 211 242 219" stroke="#38BFA6" stroke-width="18" stroke-linecap="round"/>
<text x="208" y="269" text-anchor="middle" fill="#12304B" font-family="Pretendard, Arial" font-size="26" font-weight="900">82%</text>
<text x="208" y="328" text-anchor="middle" fill="#6D8699" font-family="Pretendard, Arial" font-size="13" font-weight="800">월 재등록 비율</text>
<rect x="324" y="154" width="168" height="214" rx="28" fill="#ffffff" stroke="#DCEEFF"/>
<text x="354" y="188" fill="#6B8496" font-family="Pretendard, Arial" font-size="14" font-weight="800">채널별 문의</text>
<rect x="362" y="294" width="24" height="40" rx="12" fill="#8DE2D1"/>
<rect x="402" y="258" width="24" height="76" rx="12" fill="#7ED8FF"/>
<rect x="442" y="226" width="24" height="108" rx="12" fill="#B8B5FF"/>
<path d="M354 340H462" stroke="#DCEEFF" stroke-width="4" stroke-linecap="round"/>
<text x="374" y="358" text-anchor="middle" fill="#6D8699" font-family="Pretendard, Arial" font-size="11" font-weight="800">Naver</text>
<text x="414" y="358" text-anchor="middle" fill="#6D8699" font-family="Pretendard, Arial" font-size="11" font-weight="800">Insta</text>
<text x="454" y="358" text-anchor="middle" fill="#6D8699" font-family="Pretendard, Arial" font-size="11" font-weight="800">Youtube</text>
<rect x="514" y="154" width="134" height="214" rx="28" fill="#ffffff" stroke="#DCEEFF"/>
<text x="540" y="188" fill="#6B8496" font-family="Pretendard, Arial" font-size="14" font-weight="800">상담 전환</text>
<path d="M540 316L564 290L587 298L612 248" stroke="url(#line2)" stroke-width="8" stroke-linecap="round" stroke-linejoin="round"/>
<circle cx="564" cy="290" r="6" fill="#38BFA6"/>
<circle cx="612" cy="248" r="7" fill="#7F79E8"/>
<path d="M540 326H620" stroke="#DCEEFF" stroke-width="4" stroke-linecap="round"/>
<path d="M540 284H620" stroke="#EEF7FB" stroke-width="2" stroke-linecap="round"/>
<path d="M540 246H620" stroke="#EEF7FB" stroke-width="2" stroke-linecap="round"/>
<rect x="116" y="390" width="532" height="12" rx="6" fill="#EAF7FF"/>
<rect x="116" y="390" width="402" height="12" rx="6" fill="#2497D3" fill-opacity="0.24"/>
<text x="116" y="430" fill="#5F7789" font-family="Pretendard, Arial" font-size="13" font-weight="800">문의 → 예약 → 등록 → 재방문으로 이어지는 운영 대시보드 예시</text>
</svg>