<svg width="420" height="720" viewBox="0 0 420 720" fill="none" xmlns="http://www.w3.org/2000/svg">
<defs>
  <linearGradient id="bg" x1="70" y1="40" x2="350" y2="660" gradientUnits="userSpaceOnUse">
    <stop stop-color="#F7FCFF"/>
    <stop offset="1" stop-color="#E5F4FF"/>
  </linearGradient>
  <linearGradient id="line" x1="86" y1="372" x2="320" y2="228" gradientUnits="userSpaceOnUse">
    <stop stop-color="#2497D3"/>
    <stop offset="1" stop-color="#7F79E8"/>
  </linearGradient>
  <linearGradient id="bar1" x1="0" y1="0" x2="0" y2="1">
    <stop stop-color="#38BFA6"/>
    <stop offset="1" stop-color="#91E7D7"/>
  </linearGradient>
  <linearGradient id="bar2" x1="0" y1="0" x2="0" y2="1">
    <stop stop-color="#2497D3"/>
    <stop offset="1" stop-color="#8AD8FF"/>
  </linearGradient>
  <filter id="shadow" x="30" y="20" width="360" height="680" filterUnits="userSpaceOnUse" color-interpolation-filters="sRGB">
    <feDropShadow dx="0" dy="28" stdDeviation="24" flood-color="#206FAB" flood-opacity="0.18"/>
  </filter>
</defs>
<g filter="url(#shadow)">
  <rect x="72" y="40" width="276" height="640" rx="42" fill="#173754"/>
  <rect x="88" y="84" width="244" height="556" rx="30" fill="url(#bg)"/>
  <rect x="163" y="58" width="94" height="10" rx="5" fill="#315E7E" opacity="0.55"/>
  <circle cx="302" cy="63" r="6" fill="#315E7E" opacity="0.55"/>
</g>
<rect x="116" y="120" width="188" height="82" rx="24" fill="#ffffff" stroke="#D7EFFF"/>
<text x="138" y="148" fill="#6D8699" font-family="Pretendard, Arial" font-size="15" font-weight="700">센터 운영 분석</text>
<text x="138" y="180" fill="#12304B" font-family="Pretendard, Arial" font-size="18" font-weight="900">상담 → 등록 전환</text>
<text x="138" y="196" fill="#2497D3" font-family="Pretendard, Arial" font-size="14" font-weight="800">이번 주 +12%</text>
<rect x="116" y="226" width="188" height="182" rx="26" fill="#ffffff" stroke="#D7EFFF"/>
<path d="M138 372L170 338L194 346L228 296L256 312L286 252" stroke="url(#line)" stroke-width="8" stroke-linecap="round" stroke-linejoin="round"/>
<path d="M138 372L170 338L194 346L228 296L256 312L286 252" stroke="#ffffff" stroke-opacity="0.3" stroke-width="2"/>
<circle cx="170" cy="338" r="7" fill="#38BFA6"/>
<circle cx="228" cy="296" r="7" fill="#2497D3"/>
<circle cx="286" cy="252" r="8" fill="#7F79E8"/>
<path d="M138 380H286" stroke="#D9EBF5" stroke-width="4" stroke-linecap="round"/>
<path d="M138 332H286" stroke="#EEF7FB" stroke-width="2" stroke-linecap="round"/>
<path d="M138 284H286" stroke="#EEF7FB" stroke-width="2" stroke-linecap="round"/>
<rect x="116" y="430" width="88" height="128" rx="24" fill="#ffffff" stroke="#D7EFFF"/>
<circle cx="160" cy="482" r="26" fill="#EAF7FF"/>
<path d="M160 456C174 456 186 468 186 482C186 496 174 508 160 508C146 508 134 496 134 482C134 475 137 468 143 463" stroke="#2497D3" stroke-width="10" stroke-linecap="round"/>
<path d="M160 456C167 456 173 458 178 462" stroke="#38BFA6" stroke-width="10" stroke-linecap="round"/>
<text x="160" y="487" text-anchor="middle" fill="#12304B" font-family="Pretendard, Arial" font-size="16" font-weight="900">78%</text>
<text x="160" y="534" text-anchor="middle" fill="#6D8699" font-family="Pretendard, Arial" font-size="12" font-weight="700">재등록</text>
<rect x="216" y="430" width="88" height="128" rx="24" fill="#ffffff" stroke="#D7EFFF"/>
<rect x="238" y="500" width="14" height="32" rx="7" fill="url(#bar1)"/>
<rect x="258" y="472" width="14" height="60" rx="7" fill="url(#bar2)"/>
<rect x="278" y="450" width="14" height="82" rx="7" fill="#B8B5FF"/>
<path d="M236 536H294" stroke="#D8EBF5" stroke-width="4" stroke-linecap="round"/>
<text x="260" y="418" text-anchor="middle" fill="#6D8699" font-family="Pretendard, Arial" font-size="12" font-weight="700">유입 채널</text>
<rect x="116" y="578" width="188" height="34" rx="17" fill="#ffffff" stroke="#D7EFFF"/>
<circle cx="136" cy="595" r="6" fill="#1EC800"/>
<text x="152" y="600" fill="#315E7E" font-family="Pretendard, Arial" font-size="12" font-weight="800">네이버 · 인스타 · 유튜브 · 카카오톡</text>
</svg>